{
  "asset": {
    "version": "2.0",
    "generator": "Original linear vertex color analytic fixture"
  },
  "scene": 0,
  "scenes": [
    {
      "nodes": [
        0,
        1
      ]
    }
  ],
  "nodes": [
    {
      "name": "colored",
      "mesh": 0,
      "translation": [
        -1.25,
        0,
        0
      ]
    },
    {
      "name": "uncolored-shared-material",
      "mesh": 1,
      "translation": [
        1.25,
        0,
        0
      ]
    }
  ],
  "meshes": [
    {
      "primitives": [
        {
          "attributes": {
            "POSITION": 0,
            "NORMAL": 1,
            "TEXCOORD_0": 2,
            "COLOR_0": 4
          },
          "indices": 3,
          "material": 0
        }
      ]
    },
    {
      "primitives": [
        {
          "attributes": {
            "POSITION": 0,
            "NORMAL": 1,
            "TEXCOORD_0": 2
          },
          "indices": 3,
          "material": 0
        }
      ]
    }
  ],
  "materials": [
    {
      "name": "shared-linear-color",
      "doubleSided": true,
      "emissiveFactor": [
        0.1,
        0.2,
        0.3
      ],
      "pbrMetallicRoughness": {
        "baseColorFactor": [
          0.6,
          0.4,
          0.2,
          0.75
        ],
        "metallicFactor": 0,
        "roughnessFactor": 1,
        "baseColorTexture": {
          "index": 0
        }
      }
    }
  ],
  "samplers": [
    {
      "magFilter": 9728,
      "minFilter": 9728,
      "wrapS": 33071,
      "wrapT": 33071
    }
  ],
  "textures": [
    {
      "source": 0,
      "sampler": 0
    }
  ],
  "images": [
    {
      "bufferView": 5,
      "mimeType": "image/png"
    }
  ],
  "bufferViews": [
    {
      "buffer": 0,
      "byteOffset": 0,
      "byteLength": 48
    },
    {
      "buffer": 0,
      "byteOffset": 48,
      "byteLength": 48
    },
    {
      "buffer": 0,
      "byteOffset": 96,
      "byteLength": 32
    },
    {
      "buffer": 0,
      "byteOffset": 128,
      "byteLength": 12
    },
    {
      "buffer": 0,
      "byteOffset": 140,
      "byteLength": 32
    },
    {
      "buffer": 0,
      "byteOffset": 172,
      "byteLength": 70
    }
  ],
  "accessors": [
    {
      "bufferView": 0,
      "componentType": 5126,
      "type": "VEC3",
      "count": 4,
      "min": [
        -1,
        -1,
        0
      ],
      "max": [
        1,
        1,
        0
      ]
    },
    {
      "bufferView": 1,
      "componentType": 5126,
      "type": "VEC3",
      "count": 4
    },
    {
      "bufferView": 2,
      "componentType": 5126,
      "type": "VEC2",
      "count": 4
    },
    {
      "bufferView": 3,
      "componentType": 5123,
      "type": "SCALAR",
      "count": 6
    },
    {
      "bufferView": 4,
      "componentType": 5123,
      "type": "VEC4",
      "count": 4,
      "normalized": true
    }
  ],
  "buffers": [
    {
      "uri": "u16.bin",
      "byteLength": 242
    }
  ]
}
