{
  "asset": {
    "version": "2.0",
    "generator": "Original CC0 GPU ideal-interface fixture"
  },
  "scene": 0,
  "scenes": [
    {
      "nodes": [
        0,
        1,
        2
      ]
    }
  ],
  "nodes": [
    {
      "name": "glass-front",
      "mesh": 0
    },
    {
      "name": "emitter-target",
      "mesh": 2,
      "translation": [
        0,
        0,
        -2
      ],
      "scale": [
        4,
        4,
        1
      ]
    },
    {
      "name": "glass-exit",
      "mesh": 1,
      "translation": [
        0,
        0,
        -1
      ]
    }
  ],
  "meshes": [
    {
      "name": "glass",
      "primitives": [
        {
          "attributes": {
            "POSITION": 0,
            "NORMAL": 1,
            "TEXCOORD_0": 2
          },
          "material": 0
        }
      ]
    },
    {
      "name": "exit",
      "primitives": [
        {
          "attributes": {
            "POSITION": 3,
            "NORMAL": 4,
            "TEXCOORD_0": 5
          },
          "material": 0
        }
      ]
    },
    {
      "name": "emitter",
      "primitives": [
        {
          "attributes": {
            "POSITION": 6,
            "NORMAL": 7,
            "TEXCOORD_0": 8
          },
          "material": 1
        }
      ]
    }
  ],
  "materials": [
    {
      "name": "glass",
      "pbrMetallicRoughness": {
        "baseColorFactor": [
          0.8,
          0.9,
          1,
          1
        ],
        "metallicFactor": 0,
        "roughnessFactor": 0
      },
      "doubleSided": false
    },
    {
      "name": "emitter",
      "pbrMetallicRoughness": {
        "baseColorFactor": [
          0,
          0,
          0,
          1
        ],
        "metallicFactor": 0,
        "roughnessFactor": 1
      },
      "emissiveFactor": [
        0.75,
        0.5,
        0.25
      ],
      "doubleSided": false
    }
  ],
  "buffers": [
    {
      "byteLength": 576,
      "uri": "slab.bin"
    }
  ],
  "bufferViews": [
    {
      "buffer": 0,
      "byteOffset": 0,
      "byteLength": 72
    },
    {
      "buffer": 0,
      "byteOffset": 72,
      "byteLength": 72
    },
    {
      "buffer": 0,
      "byteOffset": 144,
      "byteLength": 48
    },
    {
      "buffer": 0,
      "byteOffset": 192,
      "byteLength": 72
    },
    {
      "buffer": 0,
      "byteOffset": 264,
      "byteLength": 72
    },
    {
      "buffer": 0,
      "byteOffset": 336,
      "byteLength": 48
    },
    {
      "buffer": 0,
      "byteOffset": 384,
      "byteLength": 72
    },
    {
      "buffer": 0,
      "byteOffset": 456,
      "byteLength": 72
    },
    {
      "buffer": 0,
      "byteOffset": 528,
      "byteLength": 48
    }
  ],
  "accessors": [
    {
      "bufferView": 0,
      "componentType": 5126,
      "count": 6,
      "type": "VEC3",
      "min": [
        -1,
        -1,
        0
      ],
      "max": [
        1,
        1,
        0
      ]
    },
    {
      "bufferView": 1,
      "componentType": 5126,
      "count": 6,
      "type": "VEC3"
    },
    {
      "bufferView": 2,
      "componentType": 5126,
      "count": 6,
      "type": "VEC2"
    },
    {
      "bufferView": 3,
      "componentType": 5126,
      "count": 6,
      "type": "VEC3",
      "min": [
        -1,
        -1,
        0
      ],
      "max": [
        1,
        1,
        0
      ]
    },
    {
      "bufferView": 4,
      "componentType": 5126,
      "count": 6,
      "type": "VEC3"
    },
    {
      "bufferView": 5,
      "componentType": 5126,
      "count": 6,
      "type": "VEC2"
    },
    {
      "bufferView": 6,
      "componentType": 5126,
      "count": 6,
      "type": "VEC3",
      "min": [
        -1,
        -1,
        0
      ],
      "max": [
        1,
        1,
        0
      ]
    },
    {
      "bufferView": 7,
      "componentType": 5126,
      "count": 6,
      "type": "VEC3"
    },
    {
      "bufferView": 8,
      "componentType": 5126,
      "count": 6,
      "type": "VEC2"
    }
  ]
}
