{
  "asset": {
    "version": "2.0",
    "generator": "Original named UV alpha coverage fixture"
  },
  "scene": 0,
  "scenes": [
    {
      "nodes": [
        0
      ]
    }
  ],
  "nodes": [
    {
      "name": "multi-uv-quad",
      "mesh": 0
    }
  ],
  "meshes": [
    {
      "primitives": [
        {
          "attributes": {
            "POSITION": 0,
            "NORMAL": 1,
            "TEXCOORD_0": 2,
            "TEXCOORD_1": 3,
            "TEXCOORD_2": 4,
            "TEXCOORD_3": 5,
            "TEXCOORD_4": 5,
            "TEXCOORD_5": 5,
            "TEXCOORD_6": 5,
            "TEXCOORD_7": 5
          },
          "indices": 6,
          "material": 0
        }
      ]
    }
  ],
  "materials": [
    {
      "name": "independent-role-UVs",
      "doubleSided": true,
      "emissiveFactor": [
        0,
        0,
        0
      ],
      "pbrMetallicRoughness": {
        "baseColorFactor": [
          0.5,
          0.5,
          0.5,
          1
        ],
        "metallicFactor": 0,
        "roughnessFactor": 0.5
      },
      "occlusionTexture": {
        "index": 2,
        "texCoord": 2
      },
      "alphaMode": "MASK",
      "alphaCutoff": 0.5
    }
  ],
  "samplers": [
    {
      "magFilter": 9728,
      "minFilter": 9728,
      "wrapS": 33071,
      "wrapT": 33071
    }
  ],
  "textures": [
    {
      "source": 0,
      "sampler": 0
    },
    {
      "source": 1,
      "sampler": 0
    },
    {
      "source": 2,
      "sampler": 0
    }
  ],
  "images": [
    {
      "bufferView": 7,
      "mimeType": "image/png"
    },
    {
      "bufferView": 8,
      "mimeType": "image/png"
    },
    {
      "bufferView": 9,
      "mimeType": "image/png"
    }
  ],
  "bufferViews": [
    {
      "buffer": 0,
      "byteOffset": 0,
      "byteLength": 48
    },
    {
      "buffer": 0,
      "byteOffset": 48,
      "byteLength": 48
    },
    {
      "buffer": 0,
      "byteOffset": 96,
      "byteLength": 32
    },
    {
      "buffer": 0,
      "byteOffset": 128,
      "byteLength": 16
    },
    {
      "buffer": 0,
      "byteOffset": 144,
      "byteLength": 16,
      "byteStride": 4
    },
    {
      "buffer": 0,
      "byteOffset": 160,
      "byteLength": 32
    },
    {
      "buffer": 0,
      "byteOffset": 192,
      "byteLength": 12
    },
    {
      "buffer": 0,
      "byteOffset": 204,
      "byteLength": 84
    },
    {
      "buffer": 0,
      "byteOffset": 288,
      "byteLength": 74
    },
    {
      "buffer": 0,
      "byteOffset": 364,
      "byteLength": 81
    }
  ],
  "accessors": [
    {
      "bufferView": 0,
      "componentType": 5126,
      "type": "VEC3",
      "count": 4,
      "min": [
        -1,
        -1,
        0
      ],
      "max": [
        1,
        1,
        0
      ]
    },
    {
      "bufferView": 1,
      "componentType": 5126,
      "type": "VEC3",
      "count": 4
    },
    {
      "bufferView": 2,
      "componentType": 5126,
      "type": "VEC2",
      "count": 4
    },
    {
      "bufferView": 3,
      "componentType": 5123,
      "type": "VEC2",
      "count": 4,
      "normalized": true
    },
    {
      "bufferView": 4,
      "componentType": 5121,
      "count": 4,
      "type": "VEC2",
      "normalized": true
    },
    {
      "bufferView": 5,
      "componentType": 5126,
      "type": "VEC2",
      "count": 4
    },
    {
      "bufferView": 6,
      "componentType": 5123,
      "type": "SCALAR",
      "count": 6
    }
  ],
  "buffers": [
    {
      "uri": "ao-mask.bin",
      "byteLength": 445
    }
  ]
}
