# render OBJ static polygon profile v0
v -0.24 -0.3 -0.15
v 0.24 -0.3 -0.15
v -0.24 0.7 -0.15
v 0.24 0.7 -0.15
v -0.24 -0.3 0.15
v 0.24 -0.3 0.15
v -0.24 0.7 0.15
v 0.24 0.7 0.15
v -0.253 0.75 -0.2
v 0.253 0.75 -0.2
v -0.253 1.1283999999999998 -0.2
v 0.253 1.1283999999999998 -0.2
v -0.253 0.75 0.2
v 0.253 0.75 0.2
v -0.253 1.1283999999999998 0.2
v 0.253 1.1283999999999998 0.2
v -0.23 -0.95 -0.12
v -0.04 -0.95 -0.12
v -0.23 -0.3 -0.12
v -0.04 -0.3 -0.12
v -0.23 -0.95 0.12
v -0.04 -0.95 0.12
v -0.23 -0.3 0.12
v -0.04 -0.3 0.12
v 0.04 -0.95 -0.12
v 0.23 -0.95 -0.12
v 0.04 -0.3 -0.12
v 0.23 -0.3 -0.12
v 0.04 -0.95 0.12
v 0.23 -0.95 0.12
v 0.04 -0.3 0.12
v 0.23 -0.3 0.12
v -0.85 0.5 -0.1
v -0.24 0.5 -0.1
v -0.85 0.7 -0.1
v -0.24 0.7 -0.1
v -0.85 0.5 0.1
v -0.24 0.5 0.1
v -0.85 0.7 0.1
v -0.24 0.7 0.1
v 0.4488734969128292 0.6350323145333436 -0.1
v 0.5237119242461111 1.1293997990974896 -0.1
v 0.25112650308717077 0.6649676854666564 -0.1
v 0.3259649304204527 1.1593351700308023 -0.1
v 0.4488734969128292 0.6350323145333436 0.1
v 0.5237119242461111 1.1293997990974896 0.1
v 0.25112650308717077 0.6649676854666564 0.1
v 0.3259649304204527 1.1593351700308023 0.1
v 0.4559649304204527 1.0493351700308025 -0.1
v 0.9311265030871707 1.2049676854666562 -0.1
v 0.39371192424611123 1.2393997990974897 -0.1
v 0.8688734969128291 1.3950323145333434 -0.1
v 0.4559649304204527 1.0493351700308025 0.1
v 0.9311265030871707 1.2049676854666562 0.1
v 0.39371192424611123 1.2393997990974897 0.1
v 0.8688734969128291 1.3950323145333434 0.1
vt 0 0
vt 0 0
vt 0 0
vt 0 0
vt 0 0
vt 0 0
vt 0 0
vt 0 0
vt 0 0
vt 0 0
vt 0 0
vt 0 0
vt 0 0
vt 0 0
vt 0 0
vt 0 0
vt 0 0
vt 0 0
vt 0 0
vt 0 0
vt 0 0
vt 0 0
vt 0 0
vt 0 0
vt 0 0
vt 0 0
vt 0 0
vt 0 0
vt 0 0
vt 0 0
vt 0 0
vt 0 0
vt 0 0
vt 0 0
vt 0 0
vt 0 0
vt 0 0
vt 0 0
vt 0 0
vt 0 0
vt 0 0
vt 0 0
vt 0 0
vt 0 0
vt 0 0
vt 0 0
vt 0 0
vt 0 0
vt 0 0
vt 0 0
vt 0 0
vt 0 0
vt 0 0
vt 0 0
vt 0 0
vt 0 0
vt 0 0
vt 0 0
vt 0 0
vt 0 0
vt 0 0
vt 0 0
vt 0 0
vt 0 0
vt 0 0
vt 0 0
vt 0 0
vt 0 0
vt 0 0
vt 0 0
vt 0 0
vt 0 0
vt 0 0
vt 0 0
vt 0 0
vt 0 0
vt 0 0
vt 0 0
vt 0 0
vt 0 0
vt 0 0
vt 0 0
vt 0 0
vt 0 0
vt 0 0
vt 0 0
vt 0 0
vt 0 0
vt 0 0
vt 0 0
vt 0 0
vt 0 0
vt 0 0
vt 0 0
vt 0 0
vt 0 0
vt 0 0
vt 0 0
vt 0 0
vt 0 0
vt 0 0
vt 0 0
vt 0 0
vt 0 0
vt 0 0
vt 0 0
vt 0 0
vt 0 0
vt 0 0
vt 0 0
vt 0 0
vt 0 0
vt 0 0
vt 0 0
vt 0 0
vt 0 0
vt 0 0
vt 0 0
vt 0 0
vt 0 0
vt 0 0
vt 0 0
vt 0 0
vt 0 0
vt 0 0
vt 0 0
vt 0 0
vt 0 0
vt 0 0
vt 0 0
vt 0 0
vt 0 0
vt 0 0
vt 0 0
vt 0 0
vt 0 0
vt 0 0
vt 0 0
vt 0 0
vt 0 0
vt 0 0
vt 0 0
vt 0 0
vt 0 0
vt 0 0
vt 0 0
vt 0 0
vt 0 0
vt 0 0
vt 0 0
vt 0 0
vt 0 0
vt 0 0
vt 0 0
vt 0 0
vt 0 0
vt 0 0
vt 0 0
vt 0 0
vt 0 0
vt 0 0
vt 0 0
vt 0 0
vt 0 0
vt 0 0
vt 0 0
vt 0 0
vt 0 0
vt 0 0
vt 0 0
vt 0 0
vt 0 0
vt 0 0
vt 0 0
vt 0 0
vt 0 0
vt 0 0
vt 0 0
vt 0 0
vt 0 0
vt 0 0
vt 0 0
vt 0 0
vt 0 0
vt 0 0
vt 0 0
vt 0 0
vt 0 0
vt 0 0
vt 0 0
vt 0 0
vt 0 0
vt 0 0
vt 0 0
vt 0 0
vt 0 0
vt 0 0
vt 0 0
vt 0 0
vt 0 0
vt 0 0
vt 0 0
vt 0 0
vt 0 0
vt 0 0
vt 0 0
vt 0 0
vt 0 0
vt 0 0
vt 0 0
vt 0 0
vt 0 0
vt 0 0
vt 0 0
vt 0 0
vt 0 0
vt 0 0
vt 0 0
vt 0 0
vt 0 0
vt 0 0
vt 0 0
vt 0 0
vt 0 0
vt 0 0
vt 0 0
vt 0 0
vt 0 0
vt 0 0
vt 0 0
vt 0 0
vt 0 0
vt 0 0
vt 0 0
vt 0 0
vt 0 0
vt 0 0
vt 0 0
vt 0 0
vt 0 0
vt 0 0
vt 0 0
vt 0 0
vt 0 0
vt 0 0
vt 0 0
vt 0 0
vt 0 0
vt 0 0
vt 0 0
vt 0 0
vt 0 0
f 2/1 1/2 3/3
f 3/4 4/5 2/6
f 7/7 5/8 6/9
f 6/10 8/11 7/12
f 5/13 1/14 2/15
f 2/16 6/17 5/18
f 4/19 3/20 7/21
f 7/22 8/23 4/24
f 3/25 1/26 5/27
f 5/28 7/29 3/30
f 6/31 2/32 4/33
f 4/34 8/35 6/36
f 10/37 9/38 11/39
f 11/40 12/41 10/42
f 15/43 13/44 14/45
f 14/46 16/47 15/48
f 13/49 9/50 10/51
f 10/52 14/53 13/54
f 12/55 11/56 15/57
f 15/58 16/59 12/60
f 11/61 9/62 13/63
f 13/64 15/65 11/66
f 14/67 10/68 12/69
f 12/70 16/71 14/72
f 18/73 17/74 19/75
f 19/76 20/77 18/78
f 23/79 21/80 22/81
f 22/82 24/83 23/84
f 21/85 17/86 18/87
f 18/88 22/89 21/90
f 20/91 19/92 23/93
f 23/94 24/95 20/96
f 19/97 17/98 21/99
f 21/100 23/101 19/102
f 22/103 18/104 20/105
f 20/106 24/107 22/108
f 26/109 25/110 27/111
f 27/112 28/113 26/114
f 31/115 29/116 30/117
f 30/118 32/119 31/120
f 29/121 25/122 26/123
f 26/124 30/125 29/126
f 28/127 27/128 31/129
f 31/130 32/131 28/132
f 27/133 25/134 29/135
f 29/136 31/137 27/138
f 30/139 26/140 28/141
f 28/142 32/143 30/144
f 34/145 33/146 35/147
f 35/148 36/149 34/150
f 39/151 37/152 38/153
f 38/154 40/155 39/156
f 37/157 33/158 34/159
f 34/160 38/161 37/162
f 36/163 35/164 39/165
f 39/166 40/167 36/168
f 35/169 33/170 37/171
f 37/172 39/173 35/174
f 38/175 34/176 36/177
f 36/178 40/179 38/180
f 42/181 41/182 43/183
f 43/184 44/185 42/186
f 47/187 45/188 46/189
f 46/190 48/191 47/192
f 45/193 41/194 42/195
f 42/196 46/197 45/198
f 44/199 43/200 47/201
f 47/202 48/203 44/204
f 43/205 41/206 45/207
f 45/208 47/209 43/210
f 46/211 42/212 44/213
f 44/214 48/215 46/216
f 50/217 49/218 51/219
f 51/220 52/221 50/222
f 55/223 53/224 54/225
f 54/226 56/227 55/228
f 53/229 49/230 50/231
f 50/232 54/233 53/234
f 52/235 51/236 55/237
f 55/238 56/239 52/240
f 51/241 49/242 53/243
f 53/244 55/245 51/246
f 54/247 50/248 52/249
f 52/250 56/251 54/252
