{
  "asset": {
    "version": "2.0",
    "generator": "Original sparse-accessor conformance fixture generator"
  },
  "buffers": [
    {
      "uri": "sparse-base-u8.bin",
      "byteLength": 822
    }
  ],
  "bufferViews": [
    {
      "buffer": 0,
      "byteOffset": 0,
      "byteLength": 60,
      "byteStride": 16
    },
    {
      "buffer": 0,
      "byteOffset": 60,
      "byteLength": 1
    },
    {
      "buffer": 0,
      "byteOffset": 64,
      "byteLength": 12
    },
    {
      "buffer": 0,
      "byteOffset": 76,
      "byteLength": 12
    },
    {
      "buffer": 0,
      "byteOffset": 88,
      "byteLength": 2
    },
    {
      "buffer": 0,
      "byteOffset": 92,
      "byteLength": 2
    },
    {
      "buffer": 0,
      "byteOffset": 96,
      "byteLength": 16
    },
    {
      "buffer": 0,
      "byteOffset": 112,
      "byteLength": 4
    },
    {
      "buffer": 0,
      "byteOffset": 116,
      "byteLength": 4
    },
    {
      "buffer": 0,
      "byteOffset": 120,
      "byteLength": 16
    },
    {
      "buffer": 0,
      "byteOffset": 136,
      "byteLength": 1
    },
    {
      "buffer": 0,
      "byteOffset": 140,
      "byteLength": 4
    },
    {
      "buffer": 0,
      "byteOffset": 144,
      "byteLength": 48
    },
    {
      "buffer": 0,
      "byteOffset": 192,
      "byteLength": 2
    },
    {
      "buffer": 0,
      "byteOffset": 196,
      "byteLength": 12
    },
    {
      "buffer": 0,
      "byteOffset": 208,
      "byteLength": 128
    },
    {
      "buffer": 0,
      "byteOffset": 336,
      "byteLength": 4
    },
    {
      "buffer": 0,
      "byteOffset": 340,
      "byteLength": 64
    },
    {
      "buffer": 0,
      "byteOffset": 404,
      "byteLength": 12
    },
    {
      "buffer": 0,
      "byteOffset": 416,
      "byteLength": 1
    },
    {
      "buffer": 0,
      "byteOffset": 420,
      "byteLength": 4
    },
    {
      "buffer": 0,
      "byteOffset": 424,
      "byteLength": 48
    },
    {
      "buffer": 0,
      "byteOffset": 472,
      "byteLength": 2
    },
    {
      "buffer": 0,
      "byteOffset": 476,
      "byteLength": 16
    },
    {
      "buffer": 0,
      "byteOffset": 492,
      "byteLength": 12
    },
    {
      "buffer": 0,
      "byteOffset": 504,
      "byteLength": 4
    },
    {
      "buffer": 0,
      "byteOffset": 508,
      "byteLength": 4
    },
    {
      "buffer": 0,
      "byteOffset": 512,
      "byteLength": 108
    },
    {
      "buffer": 0,
      "byteOffset": 620,
      "byteLength": 1
    },
    {
      "buffer": 0,
      "byteOffset": 624,
      "byteLength": 12
    },
    {
      "buffer": 0,
      "byteOffset": 636,
      "byteLength": 60,
      "byteStride": 16
    },
    {
      "buffer": 0,
      "byteOffset": 696,
      "byteLength": 2
    },
    {
      "buffer": 0,
      "byteOffset": 700,
      "byteLength": 12
    },
    {
      "buffer": 0,
      "byteOffset": 712,
      "byteLength": 26,
      "byteStride": 8
    },
    {
      "buffer": 0,
      "byteOffset": 740,
      "byteLength": 82
    }
  ],
  "accessors": [
    {
      "componentType": 5126,
      "count": 4,
      "type": "VEC3",
      "min": [
        -0.5,
        0,
        0
      ],
      "max": [
        0.5,
        2,
        0
      ],
      "bufferView": 0,
      "sparse": {
        "count": 1,
        "indices": {
          "bufferView": 1,
          "componentType": 5121
        },
        "values": {
          "bufferView": 2
        }
      }
    },
    {
      "componentType": 5123,
      "count": 6,
      "type": "SCALAR",
      "bufferView": 3,
      "sparse": {
        "count": 1,
        "indices": {
          "bufferView": 4,
          "componentType": 5123
        },
        "values": {
          "bufferView": 5
        }
      }
    },
    {
      "componentType": 5121,
      "count": 4,
      "type": "VEC4",
      "bufferView": 6,
      "sparse": {
        "count": 1,
        "indices": {
          "bufferView": 7,
          "componentType": 5125
        },
        "values": {
          "bufferView": 8
        }
      }
    },
    {
      "componentType": 5121,
      "count": 4,
      "type": "VEC4",
      "normalized": true,
      "bufferView": 9,
      "sparse": {
        "count": 1,
        "indices": {
          "bufferView": 10,
          "componentType": 5121
        },
        "values": {
          "bufferView": 11
        }
      }
    },
    {
      "componentType": 5126,
      "count": 4,
      "type": "VEC3",
      "min": [
        -0.2,
        0,
        0
      ],
      "max": [
        0.2,
        0,
        0.2
      ],
      "bufferView": 12,
      "sparse": {
        "count": 1,
        "indices": {
          "bufferView": 13,
          "componentType": 5123
        },
        "values": {
          "bufferView": 14
        }
      }
    },
    {
      "componentType": 5126,
      "count": 2,
      "type": "MAT4",
      "bufferView": 15,
      "sparse": {
        "count": 1,
        "indices": {
          "bufferView": 16,
          "componentType": 5125
        },
        "values": {
          "bufferView": 17
        }
      }
    },
    {
      "componentType": 5126,
      "count": 3,
      "type": "SCALAR",
      "min": [
        0
      ],
      "max": [
        2
      ],
      "bufferView": 18,
      "sparse": {
        "count": 1,
        "indices": {
          "bufferView": 19,
          "componentType": 5121
        },
        "values": {
          "bufferView": 20
        }
      }
    },
    {
      "componentType": 5126,
      "count": 3,
      "type": "VEC4",
      "bufferView": 21,
      "sparse": {
        "count": 1,
        "indices": {
          "bufferView": 22,
          "componentType": 5123
        },
        "values": {
          "bufferView": 23
        }
      }
    },
    {
      "componentType": 5126,
      "count": 3,
      "type": "SCALAR",
      "min": [
        0
      ],
      "max": [
        1
      ],
      "bufferView": 24,
      "sparse": {
        "count": 1,
        "indices": {
          "bufferView": 25,
          "componentType": 5125
        },
        "values": {
          "bufferView": 26
        }
      }
    },
    {
      "componentType": 5126,
      "count": 9,
      "type": "VEC3",
      "min": [
        0,
        0,
        0
      ],
      "max": [
        0.65,
        0,
        0
      ],
      "bufferView": 27,
      "sparse": {
        "count": 1,
        "indices": {
          "bufferView": 28,
          "componentType": 5121
        },
        "values": {
          "bufferView": 29
        }
      }
    },
    {
      "componentType": 5126,
      "count": 4,
      "type": "VEC3",
      "bufferView": 30,
      "sparse": {
        "count": 1,
        "indices": {
          "bufferView": 31,
          "componentType": 5123
        },
        "values": {
          "bufferView": 32
        }
      }
    },
    {
      "componentType": 5121,
      "count": 4,
      "type": "VEC2",
      "normalized": true,
      "bufferView": 33
    }
  ],
  "materials": [
    {
      "pbrMetallicRoughness": {
        "baseColorFactor": [
          1,
          1,
          1,
          1
        ],
        "metallicFactor": 0,
        "roughnessFactor": 0.8,
        "baseColorTexture": {
          "index": 0
        }
      },
      "doubleSided": true
    }
  ],
  "meshes": [
    {
      "weights": [
        0.25
      ],
      "primitives": [
        {
          "attributes": {
            "POSITION": 0,
            "JOINTS_0": 2,
            "WEIGHTS_0": 3,
            "NORMAL": 10,
            "TEXCOORD_0": 11
          },
          "indices": 1,
          "material": 0,
          "targets": [
            {
              "POSITION": 4
            }
          ]
        }
      ]
    }
  ],
  "nodes": [
    {
      "name": "hip",
      "translation": [
        0.25,
        0,
        0
      ],
      "children": [
        1
      ]
    },
    {
      "name": "shoulder",
      "translation": [
        0,
        1,
        0
      ]
    },
    {
      "name": "character",
      "mesh": 0,
      "skin": 0,
      "translation": [
        5,
        0,
        0
      ]
    }
  ],
  "skins": [
    {
      "joints": [
        0,
        1
      ],
      "skeleton": 0,
      "inverseBindMatrices": 5
    }
  ],
  "animations": [
    {
      "name": "bend",
      "samplers": [
        {
          "input": 6,
          "output": 7,
          "interpolation": "LINEAR"
        },
        {
          "input": 6,
          "output": 8,
          "interpolation": "STEP"
        },
        {
          "input": 6,
          "output": 9,
          "interpolation": "CUBICSPLINE"
        }
      ],
      "channels": [
        {
          "sampler": 0,
          "target": {
            "node": 1,
            "path": "rotation"
          }
        },
        {
          "sampler": 1,
          "target": {
            "node": 2,
            "path": "weights"
          }
        },
        {
          "sampler": 2,
          "target": {
            "node": 0,
            "path": "translation"
          }
        }
      ]
    }
  ],
  "scenes": [
    {
      "nodes": [
        0,
        2
      ]
    }
  ],
  "scene": 0,
  "images": [
    {
      "bufferView": 34,
      "mimeType": "image/png"
    }
  ],
  "samplers": [
    {
      "magFilter": 9728,
      "minFilter": 9728,
      "wrapS": 33071,
      "wrapT": 33071
    }
  ],
  "textures": [
    {
      "source": 0,
      "sampler": 0
    }
  ]
}
