{
  "asset": {
    "version": "2.0",
    "generator": "Original independent fixture generator"
  },
  "buffers": [
    {
      "uri": "character.bin",
      "byteLength": 448
    }
  ],
  "bufferViews": [
    {
      "buffer": 0,
      "byteOffset": 0,
      "byteLength": 48
    },
    {
      "buffer": 0,
      "byteOffset": 48,
      "byteLength": 12
    },
    {
      "buffer": 0,
      "byteOffset": 60,
      "byteLength": 16
    },
    {
      "buffer": 0,
      "byteOffset": 76,
      "byteLength": 16
    },
    {
      "buffer": 0,
      "byteOffset": 92,
      "byteLength": 48
    },
    {
      "buffer": 0,
      "byteOffset": 140,
      "byteLength": 128
    },
    {
      "buffer": 0,
      "byteOffset": 268,
      "byteLength": 12
    },
    {
      "buffer": 0,
      "byteOffset": 280,
      "byteLength": 48
    },
    {
      "buffer": 0,
      "byteOffset": 328,
      "byteLength": 12
    },
    {
      "buffer": 0,
      "byteOffset": 340,
      "byteLength": 108
    }
  ],
  "accessors": [
    {
      "bufferView": 0,
      "componentType": 5126,
      "count": 4,
      "type": "VEC3",
      "min": [
        -0.5,
        0,
        0
      ],
      "max": [
        0.5,
        2,
        0
      ]
    },
    {
      "bufferView": 1,
      "componentType": 5123,
      "count": 6,
      "type": "SCALAR"
    },
    {
      "bufferView": 2,
      "componentType": 5121,
      "count": 4,
      "type": "VEC4"
    },
    {
      "bufferView": 3,
      "componentType": 5121,
      "count": 4,
      "type": "VEC4",
      "normalized": true
    },
    {
      "bufferView": 4,
      "componentType": 5126,
      "count": 4,
      "type": "VEC3",
      "min": [
        -0.2,
        0,
        0
      ],
      "max": [
        0.2,
        0,
        0.2
      ]
    },
    {
      "bufferView": 5,
      "componentType": 5126,
      "count": 2,
      "type": "MAT4"
    },
    {
      "bufferView": 6,
      "componentType": 5126,
      "count": 3,
      "type": "SCALAR",
      "min": [
        0
      ],
      "max": [
        2
      ]
    },
    {
      "bufferView": 7,
      "componentType": 5126,
      "count": 3,
      "type": "VEC4"
    },
    {
      "bufferView": 8,
      "componentType": 5126,
      "count": 3,
      "type": "SCALAR",
      "min": [
        0
      ],
      "max": [
        1
      ]
    },
    {
      "bufferView": 9,
      "componentType": 5126,
      "count": 9,
      "type": "VEC3",
      "min": [
        0,
        0,
        0
      ],
      "max": [
        0.65,
        0,
        0
      ]
    }
  ],
  "materials": [
    {
      "pbrMetallicRoughness": {
        "baseColorFactor": [
          0.08,
          0.35,
          0.8,
          1
        ],
        "metallicFactor": 0,
        "roughnessFactor": 0.8
      },
      "doubleSided": true
    }
  ],
  "meshes": [
    {
      "weights": [
        0.25
      ],
      "primitives": [
        {
          "attributes": {
            "POSITION": 0,
            "JOINTS_0": 2,
            "WEIGHTS_0": 3
          },
          "indices": 1,
          "material": 0,
          "targets": [
            {
              "POSITION": 4
            }
          ]
        }
      ]
    }
  ],
  "nodes": [
    {
      "name": "hip",
      "translation": [
        0.25,
        0,
        0
      ],
      "children": [
        1
      ]
    },
    {
      "name": "shoulder",
      "translation": [
        0,
        1,
        0
      ]
    },
    {
      "name": "character",
      "mesh": 0,
      "skin": 0,
      "translation": [
        5,
        0,
        0
      ]
    }
  ],
  "skins": [
    {
      "joints": [
        0,
        1
      ],
      "skeleton": 0,
      "inverseBindMatrices": 5
    }
  ],
  "animations": [
    {
      "name": "bend",
      "samplers": [
        {
          "input": 6,
          "output": 7,
          "interpolation": "LINEAR"
        },
        {
          "input": 6,
          "output": 8,
          "interpolation": "STEP"
        },
        {
          "input": 6,
          "output": 9,
          "interpolation": "CUBICSPLINE"
        }
      ],
      "channels": [
        {
          "sampler": 0,
          "target": {
            "node": 1,
            "path": "rotation"
          }
        },
        {
          "sampler": 1,
          "target": {
            "node": 2,
            "path": "weights"
          }
        },
        {
          "sampler": 2,
          "target": {
            "node": 0,
            "path": "translation"
          }
        }
      ]
    }
  ],
  "scenes": [
    {
      "nodes": [
        0,
        2
      ]
    }
  ],
  "scene": 0
}
